<svg width="19" height="18" viewBox="0 0 19 18" fill="none" xmlns="http://www.w3.org/2000/svg">
<path d="M13.4418 5.27336C15.1298 6.43352 15.9738 8.8593 15.6573 11.0741C14.2859 18.3515 1.09898 15.9258 2.89239 7.69919C3.94733 2.53123 10.277 2.32024 13.4418 5.27336Z" fill="white"/>
<path d="M11.3319 7.38273C12.8088 7.69914 13.9693 6.85541 14.8133 5.69526C15.3407 5.06245 15.6572 3.69135 14.8133 3.05854C13.8638 2.32026 12.3869 2.84763 11.4375 3.48044C10.1715 4.32419 9.644 7.06633 11.2264 7.38273H11.3319Z" fill="#B9F2FF"/>
<path d="M13.653 3.48045C12.598 2.42576 11.2266 2.42573 9.85518 2.8476C9.01122 3.05854 7.95628 4.00776 8.27276 4.95698C8.58924 6.11713 10.1716 6.53901 11.2265 6.53901C12.8089 6.53901 14.7079 4.64061 13.653 3.48045Z" fill="#B9F2FF"/>
<path d="M11.5431 1.89839C10.0661 1.16011 8.58924 1.58196 7.21781 2.53117C6.47934 3.05852 5.63536 4.42963 6.26833 5.37884C7.00679 6.539 8.80017 6.32804 10.0661 6.01163C11.754 5.48429 13.1255 2.63667 11.5431 1.89839Z" fill="#B9F2FF"/>
<path d="M5.21334 5.80068C6.79576 6.32802 8.16721 5.58975 9.32765 4.4296C9.96062 3.79678 10.5935 2.32023 9.74953 1.47648C8.80008 0.527265 7.11219 0.94914 5.95175 1.47648C4.36933 2.21476 3.52543 5.27333 5.21334 5.80068Z" fill="#B9F2FF"/>
<path d="M2.99799 3.48045C2.99799 5.16795 4.05283 6.32806 5.52975 7.06635C6.37371 7.48822 7.95618 7.69917 8.48365 6.74995C9.22211 5.5898 8.27266 4.00776 7.4287 3.05855C6.26826 1.68745 3.10348 1.68748 2.99799 3.48045Z" fill="#B9F2FF"/>
<path d="M4.89673 8.85933C6.16267 8.12105 6.47918 6.74993 6.37368 5.27336C6.37368 4.42961 5.63525 3.16403 4.6858 3.2695C3.41986 3.2695 2.78692 4.74602 2.47044 5.80071C2.04846 7.27727 3.6308 9.70308 4.89673 8.85933Z" fill="#B9F2FF"/>
<path d="M2.15389 10.6523C3.8418 10.4413 4.89672 9.07025 5.4242 7.48822C5.74068 6.539 5.63516 4.85148 4.47472 4.4296C3.10329 3.90226 1.62647 5.16792 0.88801 6.11714C-0.27243 7.5937 0.254991 10.8632 2.15389 10.5468V10.6523Z" fill="#B9F2FF"/>
<path d="M6.47928 10.125C6.26829 8.43745 5.00233 7.38273 3.41991 6.85538C2.47046 6.53898 0.888122 6.53903 0.466144 7.69918C-0.0613284 9.07028 1.09911 10.4413 2.04856 11.2851C3.41999 12.4452 6.69027 12.0234 6.47928 10.125Z" fill="#B9F2FF"/>
<path d="M2.47056 8.43744C1.52111 9.70306 1.7321 11.2851 2.47056 12.7617C2.89254 13.6054 4.05298 14.6601 5.10793 14.1328C6.37386 13.6054 6.4793 11.8124 6.37381 10.5468C6.16282 8.85931 3.63098 7.06634 2.57603 8.43744H2.47056Z" fill="#B9F2FF"/>
<path d="M3.4199 15.9258C5.10782 15.9258 6.37375 14.7656 7.11221 13.289C7.53419 12.4453 7.74528 10.7578 6.69034 10.2304C5.4244 9.49214 3.84188 10.5469 2.89243 11.3906C1.521 12.6562 1.6265 15.9258 3.4199 15.9258Z" fill="#B9F2FF"/>
<path d="M5.74085 16.7695C7.11228 16.3476 7.74519 15.082 8.06168 13.7109C8.16717 12.8671 7.95621 11.496 6.90126 11.2851C5.74082 11.0742 4.68591 12.2343 4.15843 13.1835C3.41997 14.5546 4.15843 17.1914 5.74085 16.7695Z" fill="#B9F2FF"/>
<path d="M10.1716 12.8671C8.90564 12.1288 7.53427 12.4452 6.26833 13.1835C5.52987 13.6054 4.68591 14.7656 5.21339 15.6093C5.84635 16.664 7.42875 16.664 8.48369 16.4531C9.96061 16.1367 11.4375 13.7109 10.0661 12.8671H10.1716Z" fill="#B9F2FF"/>
<path d="M10.3826 11.9179C8.80017 12.2343 7.95611 13.6054 7.63962 15.082C7.42864 15.9257 7.63962 17.5077 8.69457 17.8241C9.9605 18.1406 11.2264 16.9804 11.8594 15.9257C12.8089 14.5546 12.0705 11.6015 10.3826 11.9179Z" fill="#B9F2FF"/>
<path d="M13.8638 12.8671C12.4924 12.2343 11.0155 12.7616 9.74953 13.7109C9.01107 14.2382 8.27269 15.6093 8.90566 16.4531C9.74961 17.5078 11.4375 17.2968 12.4925 16.8749C14.0749 16.3476 15.3408 13.6054 13.7584 12.8671H13.8638Z" fill="#B9F2FF"/>
<path d="M13.5475 16.2422C14.7079 15.3984 15.0243 14.0273 14.8133 12.6562C14.8133 11.8124 14.0749 10.6523 13.02 10.7578C11.8595 10.8632 11.2266 12.3398 10.9101 13.3945C10.5936 14.871 12.1759 17.0859 13.4419 16.2422H13.5475Z" fill="#B9F2FF"/>
<path d="M13.7584 15.2929C15.4463 14.9764 16.2903 13.6054 16.7123 11.9179C16.9233 10.9687 16.7123 9.38664 15.6573 9.07024C14.2859 8.64836 13.0199 9.91397 12.2814 10.9687C11.2265 12.4452 11.965 15.6093 13.7584 15.1874V15.2929Z" fill="#B9F2FF"/>
<path d="M18.611 10.8632C18.0836 9.2812 16.6066 8.64834 15.0242 8.4374C14.0748 8.33193 12.5978 8.75383 12.3868 9.91399C12.1759 11.2851 13.6529 12.3398 14.7078 12.9726C16.2902 13.8164 19.244 12.6562 18.611 10.9687V10.8632Z" fill="#B9F2FF"/>
<path d="M15.4463 6.11713C13.9694 6.32806 13.1255 7.59364 12.598 8.96473C12.2815 9.80848 12.3869 11.285 13.4419 11.6015C14.6023 12.0233 15.8682 10.8632 16.6067 10.0194C17.5561 8.75379 17.0287 5.90619 15.4463 6.11713Z" fill="#B9F2FF"/>
<path d="M11.332 7.59369C12.176 8.85932 13.6529 9.07027 15.0243 8.85933C15.8683 8.75386 17.1342 8.01559 17.0287 6.96091C16.9232 5.69528 15.3408 5.06247 14.2859 4.85153C12.7035 4.53513 10.488 6.22263 11.332 7.48825V7.59369Z" fill="#B9F2FF"/>
<path d="M16.0792 5.06248C15.4462 3.79685 14.1803 3.37494 12.7034 3.37494C11.8594 3.37494 10.5935 3.90231 10.5935 4.85153C10.5935 6.01168 11.8594 6.85545 12.9143 7.17185C14.2858 7.6992 16.7121 6.43357 16.0792 5.06248Z" fill="#B9F2FF"/>
</svg>
