<svg width="232" height="345" viewBox="0 0 232 345" fill="none" xmlns="http://www.w3.org/2000/svg">
<path d="M171.154 162.531C165.035 187 152.165 185.313 149.739 199.445C147.312 213.578 142.037 194.594 145.941 186.473C147.945 182.148 152.059 178.352 154.802 173.605C157.334 169.281 158.706 164.324 156.596 157.469C152.165 143.125 133.07 110.43 137.079 97.1406C141.088 83.8516 167.462 115.492 167.462 115.492C167.462 115.492 168.2 117.18 169.15 120.133C171.681 127.937 175.69 144.707 171.154 162.531Z" fill="#F9E2D9"/>
<g style="mix-blend-mode:multiply" opacity="0.3">
<path d="M171.154 162.531C165.035 187 152.165 185.312 149.738 199.445C147.312 213.578 142.037 194.594 145.941 186.473C147.945 182.148 152.059 178.352 154.802 173.605C161.132 166.012 167.673 158.734 169.255 152.195C172.525 139.328 164.508 114.016 164.508 114.016L169.044 120.133C171.576 127.937 175.585 144.707 171.048 162.531H171.154Z" fill="#962E45"/>
</g>
<path d="M175.479 12.4492C174.952 18.7773 160.182 21.8359 160.182 21.8359C160.499 21.9414 164.402 23.6289 161.765 26.1602C159.128 28.6914 142.987 27.3203 128.745 38.7109C127.69 39.5546 126.635 40.3984 125.686 41.4531C110.706 55.7969 98.2573 28.5859 98.2573 28.5859C98.2573 28.5859 124.631 11.8164 146.996 3.58981C169.361 -4.63675 170.31 8.01951 170.31 8.01951C170.31 8.01951 175.796 7.17578 175.374 12.4492H175.479Z" fill="#F9E2D9"/>
<g style="mix-blend-mode:multiply" opacity="0.3">
<path d="M171.681 12.5547C171.681 15.5078 160.288 21.8359 160.288 21.8359C160.604 21.9414 164.508 23.6289 161.87 26.1602C159.233 28.6914 143.092 27.3203 128.851 38.7109L119.673 31.4336C119.989 31.2227 133.809 14.1367 149 8.75783C164.191 3.37893 164.402 9.17967 164.402 9.17967C164.402 9.17967 171.892 9.49612 171.787 12.4492L171.681 12.5547Z" fill="#962E45"/>
</g>
<path d="M227.91 93.0273C225.906 94.7148 218.204 84.168 217.677 83.4297L188.877 81.4258L180.437 69.2969L171.998 57.0625C171.998 57.0625 192.253 55.0586 209.132 67.8203C226.011 80.4766 230.02 91.2344 227.91 93.0273Z" fill="#F9E2D9"/>
<g style="mix-blend-mode:multiply" opacity="0.3">
<path d="M217.677 83.4297L188.877 81.4258L180.438 69.2969L178.117 62.6523C178.117 62.6523 206.917 64.0234 217.677 83.5351V83.4297Z" fill="#962E45"/>
</g>
<path d="M161.554 147.555C158.284 148.293 155.963 144.813 155.963 144.813C155.963 144.813 154.591 145.34 151.637 145.234C147.945 145.023 141.616 143.547 132.438 137.957C130.222 136.691 127.901 135.109 125.369 133.316C111.761 123.613 95.0924 108.426 84.543 98.4063C82.0111 95.9805 79.7957 93.8711 78.1078 92.1836C75.787 89.9687 74.4155 88.5977 74.4155 88.5977H75.7869L96.4638 87.7539C96.4638 87.7539 96.7803 87.8594 97.2023 88.1758C99.2067 89.125 104.903 91.9727 112.077 95.5586C119.884 99.5664 129.378 104.418 137.396 109.059C143.303 112.434 148.473 115.598 151.848 118.129C164.719 127.938 164.824 146.711 161.554 147.449V147.555Z" fill="white"/>
<g style="mix-blend-mode:multiply" opacity="0.3">
<path d="M161.554 147.555C158.284 148.293 155.963 144.813 155.963 144.813C155.963 144.813 154.591 145.34 151.637 145.234C147.945 145.023 141.616 143.547 132.438 137.957C113.659 121.926 94.0375 88.3867 94.0375 88.3867H97.4132C99.4176 89.2305 105.114 91.9726 112.288 95.664C120.095 99.6719 129.589 104.523 137.607 109.164C143.514 112.539 148.684 115.703 152.059 118.234C164.93 128.043 165.035 146.816 161.765 147.555H161.554Z" fill="#962E45"/>
</g>
<path d="M209.87 147.766C209.87 147.766 222.53 175.504 221.791 178.668C221.053 181.832 217.888 182.254 217.888 182.254C217.888 182.254 217.15 191.008 214.407 195.859C211.558 200.711 206.495 203.98 206.495 203.98L203.119 188.898L210.082 147.766H209.87Z" fill="white"/>
<g style="mix-blend-mode:multiply" opacity="0.3">
<path d="M209.659 156.098C209.659 156.098 217.255 177.402 215.778 178.035C214.407 178.668 212.613 176.453 212.613 176.453C212.613 176.453 214.301 190.375 209.448 196.07C204.596 201.766 202.802 177.93 202.802 177.93" fill="#962E45"/>
</g>
<path d="M209.343 113.172C212.402 125.828 213.035 139.434 212.191 152.934C211.242 167.699 208.288 182.359 204.49 195.648C203.33 199.551 202.169 203.242 200.903 206.828C198.372 214.105 195.629 220.855 192.78 226.656C191.092 230.348 189.299 233.617 187.611 236.465C173.053 261.25 151.532 270.637 151.532 270.637C151.532 270.637 145.413 301.645 145.624 308.289C145.835 314.934 140.35 314.195 140.35 314.195C140.35 314.195 130.328 332.969 117.035 332.336C103.743 331.703 99.7342 322.422 99.7342 322.422C99.7342 322.422 95.4089 320.945 94.2485 316.832C93.088 312.719 124.42 272.641 124.42 272.641C124.42 272.641 122.099 269.16 121.044 263.887C119.989 258.613 130.117 256.504 130.117 256.504C130.117 256.504 126.741 252.18 151.11 230.453C161.87 220.75 168.2 211.258 171.998 201.449C176.745 189.215 177.695 176.453 178.75 162.32C179.804 149.137 177.062 138.801 171.576 130.258C166.512 122.348 159.022 115.914 149.95 110.113C145.835 107.477 141.299 105.156 136.446 103.152C128.745 99.8828 120.411 97.457 112.077 95.7695C102.688 93.8711 93.1935 92.8164 84.6485 92.6055C83.699 92.6055 82.644 92.6055 81.6946 92.6055C80.4286 92.6055 79.1627 92.6055 78.0023 92.6055C57.7473 91.6563 37.9144 85.1172 37.9144 85.1172C37.9144 85.1172 30.0023 86.3828 22.0902 83.8516C14.1781 81.4258 4.26171 70.5625 1.62435 66.3437C1.09688 65.3945 0.674795 64.4453 0.463806 63.3906C0.463806 63.2851 0.463806 63.1797 0.463806 63.0742C0.463806 62.8633 0.463806 62.6523 0.463806 62.5469C0.463806 62.2305 0.463806 61.914 0.463806 61.5976C0.463806 61.1758 0.463806 60.7539 0.463806 60.332C0.463806 60.2265 0.463806 60.0156 0.463806 59.9102C0.463806 59.8047 0.463806 59.6992 0.463806 59.4883C0.463806 59.2773 0.463883 59.0664 0.674872 58.8555C0.674872 58.6445 0.885784 58.3281 0.991279 58.0117C0.991279 57.8008 1.20235 57.5898 1.20235 57.3789C1.30784 57.0625 1.51885 56.7461 1.62435 56.5352C1.72984 56.2187 1.94073 56.0078 2.04622 55.6914C2.15172 55.375 2.36273 55.1641 2.46823 54.9531C2.57372 54.7422 2.78471 54.4258 2.9957 54.2148C2.9957 54.1094 3.20674 54.0039 3.31224 53.793C3.52322 53.4766 3.73416 53.1602 4.05065 52.8437C4.26163 52.6328 4.36713 52.4219 4.57812 52.211C5.10559 51.5781 5.63304 51.0508 6.266 50.418C7.21546 49.3633 8.376 48.414 9.53644 47.3594C15.8661 41.875 24.5166 36.918 31.5847 34.5977C37.8089 32.5938 62.3892 21.414 102.372 26.2656C112.816 27.5312 124.314 29.8516 136.868 33.7539C140.877 35.0196 145.097 36.3906 149.317 37.9727C155.013 40.0821 165.563 46.6211 176.429 57.2734C183.286 64.0234 190.354 72.3555 196.367 82.2696C201.853 91.3399 206.495 101.781 209.237 113.383L209.343 113.172Z" fill="#FA3801"/>
<g style="mix-blend-mode:multiply" opacity="0.3">
<path d="M209.343 113.172C212.402 125.828 213.035 139.434 212.191 152.934C211.242 167.699 208.288 182.359 204.49 195.648C203.33 199.551 202.169 203.242 200.903 206.828C198.372 214.105 195.629 220.855 192.78 226.656C188.983 227.078 187.4 225.812 189.932 221.277C200.06 203.453 195.312 153.25 195.312 153.25L199.427 133.633C199.427 133.633 200.587 126.25 191.409 105.051C182.231 83.8516 149.317 67.6094 149.317 67.6094L116.508 39.4492C116.508 39.4492 110.811 36.9179 102.583 39.7656C57.4309 27.5312 13.3342 53.8984 0.358365 62.6523C-0.274602 59.0664 1.41328 54.9531 6.26603 50.1016C7.21548 49.0469 8.37602 48.0977 9.53646 47.043C15.8661 41.5586 24.5166 36.6016 31.5847 34.2813C37.8089 32.2774 62.3892 21.0977 102.372 25.9492C112.816 27.2148 124.314 29.5351 136.868 33.4375C140.877 34.7031 145.097 36.0742 149.317 37.6562C155.013 39.7656 165.563 46.3047 176.429 56.9571C183.286 63.7071 190.354 72.039 196.367 81.9531C201.853 91.0234 206.495 101.465 209.237 113.066L209.343 113.172Z" fill="#962E45"/>
</g>
<path d="M84.7539 92.3945C83.8045 92.3945 82.7496 92.3945 81.8002 92.3945C80.5342 92.3945 79.2683 92.3945 78.1079 92.3945C57.8529 91.4453 38.0199 84.9063 38.0199 84.9063C38.0199 84.9063 30.1079 86.1719 22.1958 83.6406C14.2837 81.2149 4.36717 70.3515 1.72981 66.1328C1.20234 65.1836 0.780386 64.2344 0.569397 63.1797C0.569397 63.0742 0.569397 62.9688 0.569397 62.8633C0.569397 62.6524 0.569397 62.4414 0.569397 62.3359C0.569397 62.0195 0.569397 61.7031 0.569397 61.3867C0.569397 60.9648 0.569397 60.543 0.569397 60.1211C0.569397 60.0157 0.569397 59.8047 0.569397 59.6992C0.569397 59.5938 0.569397 59.4883 0.569397 59.2773C0.569397 59.0664 0.569345 58.8555 0.780334 58.6445C0.780334 58.4336 0.991375 58.1172 1.09687 57.8008C1.09687 57.5899 1.30781 57.3789 1.30781 57.168C1.4133 56.8515 1.62432 56.5352 1.72981 56.3242C1.83531 56.0078 2.04632 55.7969 2.15181 55.4805C2.25731 55.1641 2.4682 54.9531 2.57369 54.7422C2.67918 54.5312 2.89017 54.2148 3.10116 54.0039C3.10116 53.8984 3.3122 53.793 3.4177 53.5821C3.62869 53.2656 3.83962 52.9492 4.15611 52.6328C4.3671 52.4219 4.47259 52.211 4.68358 52C5.21105 51.3672 5.73863 50.8399 6.37159 50.207C7.32105 49.1524 8.48146 48.2031 9.6419 47.1484C8.05948 50.7344 6.47701 55.7969 7.21547 59.6992C8.5869 66.5547 17.132 70.668 21.7738 69.8242C26.4155 68.9805 36.4375 70.9844 40.3408 74.4649C42.4507 72.1445 48.6749 74.3594 48.6749 74.3594C48.6749 74.3594 52.7892 69.9297 61.8617 79.5273C65.343 83.1133 70.5122 86.2774 75.7869 88.7031C78.9517 90.1797 82.0111 91.4453 84.7539 92.5V92.3945Z" fill="white"/>
<g style="mix-blend-mode:multiply" opacity="0.3">
<path d="M18.5034 75.0976C17.765 77.9453 20.4022 81.0039 24.2 81.9531C27.9978 82.9023 31.7957 81.4258 32.4287 78.5781C33.0616 75.7305 30.5297 72.6719 26.7319 71.7227C22.8286 70.7735 19.1364 72.25 18.5034 75.0976Z" fill="#342139"/>
</g>
<path d="M20.7188 75.7305C20.1913 77.6289 21.9847 79.7383 24.622 80.3711C27.2594 81.0039 29.7913 79.9492 30.3188 78.0508C30.8462 76.1524 29.0529 74.043 26.4155 73.4102C23.7782 72.7773 21.2463 73.832 20.7188 75.7305Z" fill="#342139"/>
<path d="M202.908 137.535C201.536 138.484 199.954 137.324 199.954 137.324C199.954 137.324 201.22 145.234 200.481 146.289C198.794 148.504 197.317 146.078 197.317 146.078C197.317 146.078 197.106 153.145 195.312 153.25C193.624 153.355 194.152 145.445 195.207 136.797C196.262 128.148 199.848 118.656 188.983 108.531C178.222 98.4062 167.884 92.2891 165.246 84.8008C160.921 85.2226 157.123 78.789 157.123 78.789C157.123 78.789 142.987 77.207 139.928 71.6172C135.391 73.7266 126.213 64.4453 125.791 60.7539C120.728 58.9609 117.985 44.7227 113.659 41.4531C109.334 38.0781 102.477 39.6602 102.477 39.6602L105.747 29.8516C108.701 29.8516 109.967 33.332 109.967 33.332C109.967 33.332 115.453 31.8555 118.407 36.3907C121.783 35.125 128.64 38.1836 128.64 41.875C132.226 40.7148 135.391 45.6719 135.391 45.6719C135.391 45.6719 141.616 44.0898 144.147 51.5781C149.633 51.8945 152.059 58.0117 152.059 58.0117C152.059 58.0117 159.444 57.4844 161.237 64.3399C165.774 64.8672 168.728 74.0429 168.728 74.0429C168.728 74.0429 175.479 72.6719 175.796 79.7383C177.906 79 181.914 87.0157 181.914 87.0157C181.914 87.0157 192.569 96.9297 198.899 113.805C203.013 124.668 203.857 136.48 202.486 137.43L202.908 137.535Z" fill="white"/>
<path d="M200.903 206.828C196.789 218.746 192.042 228.977 187.611 236.57C173.053 261.355 151.532 270.742 151.532 270.742C151.532 271.27 145.413 301.75 145.624 308.395C145.835 315.039 140.35 314.301 140.35 314.301C140.35 314.301 130.328 333.074 117.035 332.441C114.398 332.336 112.077 331.809 110.073 331.176C102.266 328.434 99.6287 322.633 99.6287 322.633C99.6287 322.633 95.3035 321.156 94.143 317.043C92.9826 312.93 124.314 272.852 124.314 272.852C124.314 272.852 121.994 269.371 120.939 264.098C119.884 258.824 130.011 256.715 130.011 256.715C130.011 256.715 126.635 252.391 151.005 230.664C161.765 220.961 168.095 211.469 171.892 201.66C176.112 203.031 180.86 199.129 181.071 198.918C180.86 199.34 178.855 205.457 182.336 205.984C185.818 206.512 189.616 203.559 190.038 203.031C190.038 203.137 189.616 203.875 189.405 204.93C189.088 206.617 189.405 209.043 192.358 210.625C195.418 212.312 198.688 209.57 200.798 207.145L200.903 206.828Z" fill="white"/>
<g style="mix-blend-mode:multiply" opacity="0.3">
<path d="M200.903 206.828C196.789 218.746 192.042 228.977 187.611 236.57C173.053 261.355 151.532 270.742 151.532 270.742C151.532 270.742 145.413 301.75 145.624 308.395C145.835 315.039 140.35 314.301 140.35 314.301C140.35 314.301 130.328 333.074 117.035 332.441C103.743 331.809 99.7343 322.527 99.7343 322.527C99.7343 322.527 105.22 305.23 118.512 290.148C131.699 275.066 165.352 256.293 173.264 242.688C179.91 231.297 187.295 210.941 189.405 204.719C189.088 206.406 189.405 208.832 192.358 210.414C195.418 212.102 198.688 209.359 200.798 206.934L200.903 206.828Z" fill="#962E45"/>
</g>
<path d="M53.2111 75.836C51.8397 76.0469 51.8397 80.4766 54.266 79.6329C56.6924 78.7891 54.7935 75.625 53.2111 75.836Z" fill="#FA3801"/>
<path d="M58.0639 79.4219C57.4309 80.793 59.7517 82.375 60.3847 81.0039C61.0177 79.6328 59.2243 76.7852 58.0639 79.4219Z" fill="#FA3801"/>
<g style="mix-blend-mode:multiply" opacity="0.3">
<path d="M120.095 117.496C120.095 117.496 136.974 140.91 147.629 140.805C158.178 140.805 150.372 136.48 143.198 134.055C136.024 131.629 120.2 117.496 120.2 117.496H120.095Z" fill="#962E45"/>
</g>
<g style="mix-blend-mode:multiply" opacity="0.3">
<path d="M116.824 105.789C116.824 105.789 135.919 132.262 152.587 134.793C169.255 137.324 157.651 129.73 149.633 128.043C141.615 126.355 116.824 105.789 116.824 105.789Z" fill="#962E45"/>
</g>
<g style="mix-blend-mode:multiply" opacity="0.3">
<path d="M122.416 46.5156C117.563 42.8242 118.618 36.6015 118.618 36.6015C121.993 35.3359 128.851 38.3945 128.851 42.0859C128.851 42.0859 127.374 50.207 122.416 46.5156Z" fill="#962E45"/>
</g>
<g style="mix-blend-mode:multiply" opacity="0.3">
<path d="M144.358 51.6836C144.358 51.6836 134.442 66.5547 131.699 61.5977C128.956 56.6406 135.602 45.7773 135.602 45.7773C135.602 45.7773 141.826 44.1953 144.358 51.6836Z" fill="#962E45"/>
</g>
<g style="mix-blend-mode:multiply" opacity="0.3">
<path d="M161.554 64.5507C161.554 64.5507 154.591 74.8867 150.793 72.4609C146.996 70.0351 152.376 58.2226 152.376 58.2226C152.376 58.2226 159.761 57.6953 161.554 64.5507Z" fill="#962E45"/>
</g>
<g style="mix-blend-mode:multiply" opacity="0.3">
<path d="M176.112 79.9492C176.112 79.9492 169.15 83.2188 166.934 79.9492C164.613 76.6797 169.044 74.1484 169.044 74.1484C169.044 74.1484 175.796 72.7773 176.112 79.8437V79.9492Z" fill="#962E45"/>
</g>
<g style="mix-blend-mode:multiply" opacity="0.3">
<path d="M151.637 270.637C151.637 271.059 145.519 301.645 145.73 308.289C145.941 314.934 140.455 314.195 140.455 314.195C140.455 314.195 130.433 332.969 117.141 332.336C114.503 332.23 112.182 331.703 110.178 331.07C110.178 321.578 111.55 304.176 120.517 294.684C133.176 281.395 151.005 271.059 151.637 270.742V270.637Z" fill="#962E45"/>
</g>
<g style="mix-blend-mode:multiply" opacity="0.3">
<path d="M133.492 290.043C133.492 290.043 113.554 316.516 118.407 323.898C123.259 331.281 133.492 290.043 133.492 290.043Z" fill="#962E45"/>
</g>
<g style="mix-blend-mode:multiply" opacity="0.3">
<path d="M137.712 291.836C137.712 291.836 135.075 307.973 138.556 308.184C142.037 308.395 137.712 291.836 137.712 291.836Z" fill="#962E45"/>
</g>
</svg>
