<svg width="163" height="41" viewBox="0 0 163 41" fill="none" xmlns="http://www.w3.org/2000/svg">
<path fill-rule="evenodd" clip-rule="evenodd" d="M27.2881 39.8951H38.1025L33.4299 25.7355H19.3194C19.2902 25.7358 19.261 25.736 19.2318 25.736C15.591 25.736 12.6396 22.7846 12.6396 19.1439C12.6396 15.5032 15.591 12.5518 19.2318 12.5518C22.8723 12.5518 25.8236 15.5029 25.8239 19.1433H31.2544L25.1589 0.671875H12.9437L0 39.8951H10.8704L12.5514 34.2357H25.6071L27.2881 39.8951Z" fill="url(#paint0_linear_302_1352)"/>
<path d="M58.6053 28.1421H57.1265L55.8275 24.7047H49.1926L47.8936 28.1421H46.4147L51.7906 14.1528H53.2295L58.6053 28.1421ZM52.51 15.8915L49.6922 23.3857H55.3279L52.51 15.8915ZM63.0035 14.1528H72.9959V15.4718H68.6992V28.1421H67.3002V15.4718H63.0035V14.1528ZM86.1666 21.4872H93.1612V22.2066C93.1612 23.9453 92.5417 25.4042 91.3026 26.6033C90.0636 27.7824 88.4048 28.3819 86.3264 28.3819C84.2081 28.3819 82.4494 27.6824 81.0705 26.2835C79.6915 24.8846 78.9921 23.1659 78.9921 21.1475C78.9921 19.129 79.6915 17.4103 81.0705 16.0114C82.4494 14.6125 84.2081 13.913 86.3264 13.913C87.6254 13.913 88.8045 14.2328 89.8837 14.8523C90.9629 15.4718 91.8022 16.3112 92.3818 17.3504L91.1427 18.0698C90.2634 16.3711 88.4048 15.272 86.3264 15.272C84.5878 15.272 83.1489 15.8315 82.0497 16.9707C80.9506 18.1098 80.391 19.4887 80.391 21.1475C80.391 22.8062 80.9506 24.1851 82.0497 25.3243C83.1489 26.4634 84.5878 27.0229 86.3264 27.0229C87.9052 27.0229 89.1643 26.6233 90.1035 25.8439C91.0428 25.0445 91.5824 24.0252 91.7223 22.8062H86.1666V21.4872ZM99.1578 14.1528H109.15V15.4718H104.853V28.1421H103.455V15.4718H99.1578V14.1528ZM117.345 21.747V26.8231H124.139V28.1421H115.946V14.1528H124.04V15.4718H117.345V20.428H123.54V21.747H117.345ZM137.777 28.3819C135.658 28.3819 133.9 27.6824 132.521 26.2835C131.142 24.8846 130.442 23.1659 130.442 21.1475C130.442 19.129 131.142 17.4103 132.521 16.0114C133.9 14.6125 135.658 13.913 137.777 13.913C140.355 13.913 142.653 15.252 143.832 17.3504L142.593 18.0698C141.714 16.3711 139.855 15.272 137.777 15.272C136.038 15.272 134.599 15.8315 133.5 16.9707C132.401 18.1098 131.841 19.4887 131.841 21.1475C131.841 22.8062 132.401 24.1851 133.5 25.3243C134.599 26.4634 136.038 27.0229 137.777 27.0229C139.855 27.0229 141.714 25.9238 142.593 24.2251L143.832 24.9246C142.693 27.0229 140.355 28.3819 137.777 28.3819ZM159.922 20.2881V14.1528H161.321V28.1421H159.922V21.6071H152.328V28.1421H150.929V14.1528H152.328V20.2881H159.922Z" fill="#121212"/>
<defs>
<linearGradient id="paint0_linear_302_1352" x1="12.9483" y1="0.805347" x2="37.936" y2="39.8014" gradientUnits="userSpaceOnUse">
<stop stop-color="#F7D558"/>
<stop offset="1" stop-color="#E37538"/>
</linearGradient>
</defs>
</svg>
